<svg width="50" height="33" viewBox="0 0 50 33" fill="none" xmlns="http://www.w3.org/2000/svg">
<path d="M18.856 23.0344C18.856 18.3798 15.0827 14.6064 10.428 14.6064C5.7733 14.6064 2 18.3798 2 23.0344C2 27.689 5.7733 31.4624 10.428 31.4624C15.0827 31.4624 18.856 27.689 18.856 23.0344ZM18.856 23.0344H25.4211L33.9759 9.7171M39.7429 23.0344L31.1978 3.2789L35.6957 2M22.1386 23.0344L16.0283 8.9674M12.9415 8.9674H18.4978M39.7429 14.6064C44.3976 14.6064 48.1709 18.3798 48.1709 23.0344C48.1709 27.689 44.3976 31.4624 39.7429 31.4624C35.0882 31.4624 31.3149 27.689 31.3149 23.0344C31.3149 18.3798 35.0882 14.6064 39.7429 14.6064Z" stroke="#8081BD" stroke-width="3" stroke-miterlimit="22.9256" stroke-linecap="round" stroke-linejoin="round"/>
</svg>
