<svg width="52" height="49" viewBox="0 0 52 49" fill="none" xmlns="http://www.w3.org/2000/svg">
<path d="M18.7175 26.6119C16.947 28.1209 14.6511 29.0318 12.1424 29.0318C6.5409 29.0318 2 24.4908 2 18.8894C2 13.288 6.5409 8.74698 12.1424 8.74698C12.3375 8.74698 12.5312 8.75308 12.7236 8.76398C14.4748 5.72298 17.7577 3.67578 21.5188 3.67578C25.2525 3.67578 28.515 5.69328 30.2755 8.69748" stroke="#8081BD" stroke-width="3" stroke-miterlimit="22.9256" stroke-linecap="round" stroke-linejoin="round"/>
<path d="M38.0537 26.235C36.2341 27.968 33.7712 29.0318 31.06 29.0318C28.3378 29.0318 25.866 27.9594 24.0443 26.214M44.2891 7.336V16.1113M39.7911 7.336V16.1113M42.018 21.2705V36.3518M42.018 36.3518C43.5824 36.3518 44.8623 37.6316 44.8623 39.196V43.8924C44.8623 45.4568 43.5825 46.7366 42.0181 46.7366C40.4537 46.7366 39.1737 45.4568 39.1737 43.8924V39.196C39.1737 37.6316 40.4536 36.3518 42.018 36.3518ZM9.94144 43.104C17.6525 46.0379 25.3637 46.0109 33.075 43.1828V32.2509M14.8761 32.0745V39.3946M9.94144 28.7923V43.1828M35.6847 22.2562C34.653 23.6901 32.9662 24.6021 31.06 24.5763M12.1423 24.5763C9.00154 24.5763 6.45544 22.0302 6.45544 18.8894M39.3497 2H44.6863C47.3745 2 49.5739 4.1993 49.5739 6.8876V16.3829C49.5739 19.0711 47.3745 21.2705 44.6863 21.2705H39.3497C36.6615 21.2705 34.4621 19.0711 34.4621 16.3829V6.8876C34.4621 4.1993 36.6615 2 39.3497 2Z" stroke="#8081BD" stroke-width="3" stroke-miterlimit="22.9256" stroke-linecap="round" stroke-linejoin="round"/>
</svg>
