<svg width="46" height="50" viewBox="0 0 46 50" fill="none" xmlns="http://www.w3.org/2000/svg">
<path d="M43.0378 2C39.4953 6.9977 35.9529 11.9954 33.8803 14.9205C31.8077 17.8456 31.2051 18.6982 30.72 19.2494C30.2349 19.8006 29.8675 20.0504 29.353 20.2048C28.8385 20.3591 28.1771 20.4179 26.2515 19.8373C24.3259 19.2567 21.1362 18.0367 17.873 16.7653C14.6098 15.4938 11.2731 14.1708 9.41374 13.4579C7.55424 12.745 7.17214 12.6421 6.76794 12.598C6.36364 12.5539 5.93744 12.5686 5.54794 12.6568C5.15834 12.745 4.80554 12.9067 4.45274 13.1934C4.09994 13.48 3.74724 13.8915 3.32094 15.0013C2.89464 16.1111 2.39494 17.9191 2.16714 19.5507C1.93924 21.1823 1.98334 22.6375 2.07154 23.8942C2.15974 25.151 2.29194 26.2094 2.53454 27.0031C2.77704 27.7969 3.12984 28.326 3.58554 28.767C4.04124 29.208 4.59974 29.5608 6.91484 30.0311C8.71554 30.397 11.5788 30.834 13.7584 31.145M28.5579 29.192C29.6793 28.7521 30.7792 28.2747 31.4689 27.9113C32.1605 27.547 32.4398 27.2971 32.6088 26.9516C32.7779 26.6062 32.8367 26.1653 32.8514 25.7316C32.8661 25.298 32.8367 24.8718 32.8293 24.6145C32.822 24.3573 32.8367 24.2691 33.1086 24.2029C33.3806 24.1368 33.9097 24.0927 34.2698 23.9898C34.63 23.8869 34.821 23.7252 36.3341 21.0507C37.8473 18.3762 40.6824 13.1889 43.5176 8.0016M24.4764 38.0766C24.0808 38.43 23.6851 38.7834 23.3513 39.3423C23.0176 39.9012 22.7456 40.6655 22.5251 41.5621C22.3046 42.4588 22.1356 43.4878 22.018 44.3807C21.9004 45.2737 21.8342 46.0307 21.7814 46.5551C21.7287 47.0795 21.6893 47.3712 21.6499 47.663M21.2979 23.6958C25.4625 23.6958 28.8386 27.0719 28.8386 31.2365C28.8386 35.4011 25.4625 38.7772 21.2979 38.7772C17.1333 38.7772 13.7572 35.4011 13.7572 31.2365C13.7572 27.0719 17.1333 23.6958 21.2979 23.6958ZM21.2979 26.8714C21.8457 26.8714 22.2898 27.3155 22.2898 27.8633C22.2898 28.4111 21.8457 28.8552 21.2979 28.8552C20.7501 28.8552 20.306 28.4111 20.306 27.8633C20.306 27.3155 20.7501 26.8714 21.2979 26.8714ZM21.2979 33.5081C21.8457 33.5081 22.2898 33.9522 22.2898 34.5C22.2898 35.0478 21.8457 35.4919 21.2979 35.4919C20.7501 35.4919 20.306 35.0478 20.306 34.5C20.306 33.9522 20.7501 33.5081 21.2979 33.5081ZM17.5651 29.0265C17.8391 28.5521 18.4456 28.3896 18.9202 28.6634C19.3945 28.9374 19.5571 29.544 19.2832 30.0184C19.0092 30.4928 18.4026 30.6553 17.9281 30.3815C17.4538 30.1075 17.2913 29.5009 17.5651 29.0265ZM23.3127 32.3449C23.5865 31.8705 24.1933 31.7079 24.6676 31.9818C25.1421 32.2557 25.3046 32.8624 25.0307 33.3368C24.7569 33.8112 24.1502 33.9737 23.6758 33.6997C23.2014 33.426 23.0388 32.8194 23.3127 32.3449ZM17.5652 33.3367C17.8391 33.8111 18.4457 33.9736 18.9201 33.6997C19.3945 33.4258 19.5571 32.8192 19.2832 32.3448C19.0093 31.8704 18.4026 31.7078 17.9282 31.9817C17.4538 32.2556 17.2913 32.8623 17.5652 33.3367ZM23.3127 30.0183C23.5866 30.4927 24.1933 30.6553 24.6677 30.3814C25.1421 30.1075 25.3046 29.5008 25.0307 29.0264C24.7568 28.552 24.1502 28.3895 23.6758 28.6634C23.2014 28.9373 23.0388 29.5439 23.3127 30.0183ZM18.1046 38.0697C18.5002 38.4231 18.8959 38.7765 19.2297 39.3354C19.5634 39.8943 19.8354 40.6586 20.0559 41.5552C20.2764 42.4519 20.4454 43.4809 20.563 44.3738C20.6806 45.2668 20.7468 46.0238 20.7996 46.5482C20.8523 47.0726 20.8917 47.3643 20.9311 47.6561L18.1046 38.0697Z" stroke="#8081BD" stroke-width="3" stroke-miterlimit="22.9256" stroke-linecap="round" stroke-linejoin="round"/>
</svg>
