<svg width="46" height="48" viewBox="0 0 46 48" fill="none" xmlns="http://www.w3.org/2000/svg">
<path d="M2 16.4202L23.0785 29.3848M2 16.4202V33.089L23.0785 46.0536M2 16.4202L7.3209 13.0445M23.0785 29.3848V46.0536M23.0785 29.3848L44.157 16.4202M23.0785 46.0536L44.157 33.089V16.4202M44.157 16.4202L38.9651 13.1294M31.7321 8.5448L28.4334 6.454M18.1955 6.1511L14.4162 8.54681M28.432 18.6248C28.432 16.8712 26.1444 15.4497 23.3224 15.4497C20.5004 15.4497 18.2128 16.8712 18.2128 18.6248M28.432 18.6248C28.432 20.3783 26.1444 21.7998 23.3224 21.7998C20.5004 21.7998 18.2128 20.3783 18.2128 18.6248M28.432 18.6248C28.432 18.6877 28.429 21.913 28.4232 21.975C28.2672 23.6411 26.0431 24.9625 23.3224 24.9625C20.5852 24.9625 18.3506 23.6251 18.2189 21.9446C18.2149 21.8928 18.2128 18.6775 18.2128 18.6248M28.432 5.1751C28.432 3.4215 26.1444 2 23.3224 2C20.5004 2 18.2128 3.4215 18.2128 5.1751M28.432 5.1751C28.432 6.9286 26.1444 8.3501 23.3224 8.3501C20.5004 8.3501 18.2128 6.9286 18.2128 5.1751M28.432 5.1751C28.432 5.238 28.429 8.4633 28.4232 8.5253C28.2672 10.1914 26.0431 11.5128 23.3224 11.5128C20.5852 11.5128 18.3506 10.1754 18.2189 8.4949C18.2149 8.4431 18.2128 5.2278 18.2128 5.1751M17.54 11.481C17.54 9.72741 15.2524 8.3059 12.4304 8.3059C9.6084 8.3059 7.3208 9.72741 7.3208 11.481M17.54 11.481C17.54 13.2345 15.2524 14.656 12.4304 14.656C9.6084 14.656 7.3208 13.2345 7.3208 11.481M17.54 11.481C17.54 11.5439 17.537 14.7692 17.5312 14.8312C17.3752 16.4973 15.1511 17.8187 12.4304 17.8187C9.6932 17.8187 7.4586 16.4813 7.3269 14.8008C7.3229 14.749 7.3208 11.5337 7.3208 11.481M38.9272 11.481C38.9272 9.72741 36.6396 8.3059 33.8176 8.3059C30.9956 8.3059 28.708 9.72741 28.708 11.481M38.9272 11.481C38.9272 13.2345 36.6396 14.656 33.8176 14.656C30.9956 14.656 28.708 13.2345 28.708 11.481M38.9272 11.481C38.9272 11.5439 38.9242 14.7692 38.9184 14.8312C38.7624 16.4973 36.5383 17.8187 33.8176 17.8187C31.0804 17.8187 28.8458 16.4813 28.7141 14.8008C28.7101 14.749 28.708 11.5337 28.708 11.481" stroke="#8081BD" stroke-width="3" stroke-miterlimit="22.9256" stroke-linecap="round" stroke-linejoin="round"/>
</svg>
