<svg width="41" height="38" viewBox="0 0 41 38" fill="none" xmlns="http://www.w3.org/2000/svg">
<path d="M10.8636 35.8668H16.4639H17.0373H22.1084H22.6376H27.7087H28.2821H33.309H33.8824H39.4827V26.7386C39.4827 25.0408 38.0937 23.6518 36.3959 23.6518C35.1598 23.6518 34.0876 24.3882 33.5957 25.4438M10.8636 35.8668V26.7386C10.8636 25.0408 12.2527 23.6518 13.9505 23.6518C15.1866 23.6518 16.2587 24.3882 16.7506 25.4438M10.8636 35.8668L2 14.215V5.0868C2 3.389 3.3891 2 5.0869 2C6.323 2 7.3951 2.73639 7.887 3.79199M33.5957 25.4438C33.1038 24.3882 32.0317 23.6518 30.7956 23.6518C29.5595 23.6518 28.4873 24.3882 27.9954 25.4438M33.5957 25.4438L24.7321 3.79199M27.9954 25.4438C27.5035 24.3882 26.4314 23.6518 25.1953 23.6518C23.9404 23.6518 22.8543 24.4107 22.373 25.4922M27.9954 25.4438L19.1318 3.79199M22.373 25.4922C21.8917 24.4107 20.8057 23.6518 19.5508 23.6518C18.3147 23.6518 17.2425 24.3882 16.7506 25.4438M22.373 25.4922L13.5094 3.84039M16.7506 25.4438L7.887 3.79199M30.4152 3.98619C29.9695 2.82779 28.8428 2 27.5323 2C26.2962 2 25.224 2.73639 24.7321 3.79199M24.7321 3.79199C24.2402 2.73639 23.1681 2 21.932 2C20.6959 2 19.6237 2.73639 19.1318 3.79199M19.1318 3.79199C18.6399 2.73639 17.5678 2 16.3317 2C15.0768 2 13.9907 2.75889 13.5094 3.84039M13.5094 3.84039C13.0281 2.75889 11.9421 2 10.6872 2C9.4511 2 8.3789 2.73639 7.887 3.79199M30.3263 3.7783L39.2527 25.5724" stroke="#8081BD" stroke-width="3" stroke-miterlimit="22.9256" stroke-linecap="round" stroke-linejoin="round"/>
</svg>
