<svg width="42" height="57" viewBox="0 0 42 57" fill="none" xmlns="http://www.w3.org/2000/svg">
<path d="M27.7055 13.2885C30.0476 15.9432 34.0984 16.1966 36.7531 13.8545C39.4079 11.5124 39.6613 7.46161 37.3192 4.80686C34.9771 2.1521 30.9263 1.89867 28.2715 4.2408C25.6168 6.58293 25.3633 10.6337 27.7055 13.2885Z" stroke="#8081BD" stroke-width="3" stroke-miterlimit="22.9256" stroke-linecap="round" stroke-linejoin="round"/>
<path fill-rule="evenodd" clip-rule="evenodd" d="M28.6095 19.2725L11.4587 32.0086C11.378 32.0967 11.2919 32.1816 11.2003 32.2624C9.80553 33.493 7.67702 33.3599 6.44642 31.965C5.21572 30.5701 5.34902 28.4417 6.74382 27.2111C6.87632 27.0942 7.01542 26.9897 7.15972 26.8974L21.8054 11.6022C21.9289 13.3818 22.6166 15.1364 23.888 16.5774C25.1701 18.0306 26.8427 18.9348 28.6095 19.2725Z" stroke="#8081BD" stroke-width="3" stroke-miterlimit="22.9256" stroke-linecap="round" stroke-linejoin="round"/>
<path d="M27.6807 51.3274C21.6946 56.6086 11.5106 56.9917 6.22936 51.0056C0.948157 45.0194 0.243302 36.9833 6.2293 31.7021" stroke="#8081BD" stroke-width="3" stroke-miterlimit="22.9256" stroke-linecap="round" stroke-linejoin="round"/>
</svg>
