<svg width="42" height="51" viewBox="0 0 42 51" fill="none" xmlns="http://www.w3.org/2000/svg">
<path d="M23.9823 2C22.9362 7.6093 21.89 13.2186 21.1391 16.3173C20.3882 19.4159 19.9325 20.0038 16.9927 22.7746C14.0529 25.5454 8.62891 30.499 5.77 33.1816C2.91101 35.8642 2.617 36.2757 2.3564 36.702C2.0958 37.1283 1.86851 37.5692 2.08901 38.5467C2.30951 39.5242 2.97771 41.0382 3.46621 42.2288C3.95461 43.4195 4.26331 44.2867 4.43241 44.9923C4.60141 45.6979 4.63081 46.2417 4.63821 46.859C4.64551 47.4764 4.63081 48.1673 4.61611 48.8581M22.5196 18.4751C19.6974 18.4604 16.8751 18.4457 14.979 18.4384C13.0828 18.431 12.1126 18.431 11.3262 18.4751C10.5398 18.5192 9.93721 18.6074 9.51831 18.7471C9.09931 18.8867 8.86411 19.0778 7.84991 20.3272C6.83561 21.5766 5.04241 23.8844 4.14581 25.0824C3.24911 26.2803 3.24911 26.3685 3.82241 27.7061C4.39561 29.0437 5.54211 31.6308 6.68861 34.2178M9.11691 18.9469C10.2184 22.2439 11.3198 25.541 11.9 27.3365C12.4801 29.132 12.5389 29.4259 12.708 29.5949C12.877 29.764 13.1562 29.8081 14.4939 29.5435C15.8315 29.2789 18.2274 28.7057 19.5356 28.4117C20.8439 28.1177 21.0643 28.103 21.9683 28.6762C22.8723 29.2495 24.4598 30.4108 25.6431 31.2486C26.8264 32.0865 27.6054 32.6009 28.3845 33.1154M21.373 43.4342C20.6234 41.1264 19.8737 38.8187 19.4254 37.4884C18.9771 36.1581 18.8301 35.8054 18.2127 35.2321C17.5954 34.6588 16.5076 33.8651 15.4199 33.0713M40.4671 20.4154C37.8801 23.4581 35.293 26.5008 33.9848 28.103C32.6766 29.7052 32.6472 29.8669 32.5957 30.4695C32.5443 31.0722 32.4708 32.1159 32.412 32.6597C32.3532 33.2036 32.3092 33.2477 31.6036 33.7842C30.8981 34.3207 29.531 35.3497 28.8181 35.8935C28.1052 36.4374 28.0464 36.4962 27.6862 37.7603C27.3261 39.0244 26.6647 41.4939 26.3339 42.7286C26.0032 43.9633 26.0032 43.9633 25.6798 44.294C25.3565 44.6248 24.7097 45.2862 24.2393 45.7419C23.769 46.1976 23.475 46.4475 23.1736 46.7341C22.8723 47.0208 22.5637 47.3441 22.3799 47.5719C22.1962 47.7998 22.1374 47.9321 22.0786 48.0644M10.1282 7.7392C12.1365 7.7392 13.7645 9.3672 13.7645 11.3755C13.7645 13.3838 12.1365 15.0118 10.1282 15.0118C8.11991 15.0118 6.49191 13.3838 6.49191 11.3755C6.49191 9.3672 8.11991 7.7392 10.1282 7.7392Z" stroke="#8081BD" stroke-width="3" stroke-miterlimit="22.9256" stroke-linecap="round" stroke-linejoin="round"/>
</svg>
