<svg width="51" height="47" viewBox="0 0 51 47" fill="none" xmlns="http://www.w3.org/2000/svg">
<path d="M2 27.8267H48.7973M2 27.8267V32.8109H48.7973V27.8267M2 27.8267L6.8948 17.8789H16.2736C15.5813 18.4188 14.8061 19.0763 13.9881 19.8192M48.7973 27.8267L43.9025 17.8789H36.0239C36.7793 18.3513 37.5538 18.8901 38.1901 19.4002M10.0266 23.6336C10.9747 22.7002 12.5476 21.1274 13.9881 19.8192M13.9881 19.8192C15.4286 18.5109 16.7368 17.4673 17.6923 16.8646C18.6477 16.2619 19.2503 16.1003 19.8089 16.0856C20.3675 16.0709 20.8819 16.2032 21.4479 16.5266C22.0138 16.85 22.6312 17.3644 23.2412 17.8863M38.1901 19.4002C39.1529 20.1719 39.7997 20.8775 40.2259 21.4802C40.6522 22.0828 40.858 22.5825 40.9756 22.9427M38.1901 19.4002C37.2274 18.6285 35.9485 17.7907 34.8975 17.2174C33.8465 16.6441 33.0234 16.3355 32.3692 16.1297C31.7151 15.9239 31.2301 15.821 30.6788 15.9019C30.1276 15.9827 29.5103 16.2472 28.8929 16.725C28.2756 17.2027 27.6582 17.8935 27.0188 18.386M23.2412 17.8863L23.2326 17.8789H27.6123C27.4162 18.059 27.2185 18.2322 27.0188 18.386M23.2412 17.8863C23.8512 18.4081 24.4539 18.9372 25.086 19.0548C25.718 19.1724 26.3794 18.8784 27.0188 18.386M35.1662 17.3669L37.7797 7.4296M37.7797 7.4296L42.77 6.7814L43.4039 4.3712L34.3879 2L33.754 4.4102L37.7797 7.4296ZM5.5002 44.7341H45.2971V32.8109H5.5002V44.7341ZM18.0891 19.5053C18.8711 19.5053 19.5051 20.1393 19.5051 20.9213C19.5051 21.7033 18.8711 22.3373 18.0891 22.3373C17.3071 22.3373 16.6731 21.7033 16.6731 20.9213C16.6731 20.1393 17.3071 19.5053 18.0891 19.5053ZM22.7635 22.3276C23.5455 22.3276 24.1795 22.9616 24.1795 23.7436C24.1795 24.5256 23.5455 25.1596 22.7635 25.1596C21.9815 25.1596 21.3475 24.5256 21.3475 23.7436C21.3475 22.9616 21.9815 22.3276 22.7635 22.3276ZM30.8332 18.0942C31.6152 18.0942 32.2492 18.7282 32.2492 19.5102C32.2492 20.2922 31.6152 20.9262 30.8332 20.9262C30.0512 20.9262 29.4172 20.2922 29.4172 19.5102C29.4172 18.7282 30.0512 18.0942 30.8332 18.0942ZM34.6697 21.5338C35.4517 21.5338 36.0857 22.1678 36.0857 22.9498C36.0857 23.7318 35.4517 24.3658 34.6697 24.3658C33.8877 24.3658 33.2537 23.7318 33.2537 22.9498C33.2537 22.1678 33.8877 21.5338 34.6697 21.5338Z" stroke="#8081BD" stroke-width="3" stroke-miterlimit="22.9256" stroke-linecap="round" stroke-linejoin="round"/>
</svg>
