<svg width="812" height="709" viewBox="0 0 812 709" fill="none" xmlns="http://www.w3.org/2000/svg">
<path d="M561.878 473.769C534.446 463.057 516.448 436.702 516.715 414.429C516.941 395.578 541.208 371.057 583.057 333.573C624.906 296.088 582.174 234.595 648.077 225.26C713.981 215.925 764.05 262.68 740.499 320.832C716.948 378.984 634.018 501.851 561.878 473.769Z" fill="#58BBAE"/>
<path d="M69.0263 297.739C119.19 286.269 169.358 274.803 219.532 263.339C222.161 262.733 225.061 261.959 226.546 259.699C228.541 256.672 227.014 252.645 225.456 249.368L175.914 145.119C173.614 140.222 169.498 134.464 164.284 135.818C161.125 136.662 159.259 139.835 157.748 142.72C130.031 195.97 98.8779 239.014 71.1762 292.298L69.0263 297.739Z" fill="#79BC6D"/>
<path d="M282.709 223.13L245.553 327.428C265.773 318.093 286 308.762 306.232 299.434C287.743 322.197 273.756 348.27 265.016 376.262C307.458 355.31 351.337 337.401 396.319 322.671C376.539 306.136 353.132 294.51 328.006 288.741L393.77 267.627C354.814 257.251 317.331 241.98 282.215 222.18" fill="#79BC6D"/>
<path d="M402.742 476.81C391.286 487.386 379.211 498.459 372.892 512.984C367.284 525.756 366.376 542.053 374.969 553.768C382.848 564.554 396.598 568.645 409.478 568.211C426.371 567.637 441.652 559.227 456.476 551.945C483.901 538.344 514.001 530.997 544.608 530.433C575.215 529.869 605.566 536.102 633.474 548.682C640.445 551.878 647.108 555.691 654.085 558.878C660.487 561.798 667.328 564.36 674.409 564.618C680.848 564.926 687.171 562.821 692.142 558.717C696.709 554.881 699.615 549.468 701.403 543.864C705.664 530.467 704.482 515.773 703.859 501.959C703.036 483.682 701.306 465.248 696.119 447.656C688.002 420.082 669.904 393.213 641.748 383.417C612.663 373.297 581.234 383.692 554.172 395.046C526.813 406.526 498.625 416.339 472.118 429.741C459.243 436.255 446.868 443.714 435.093 452.055C426.381 458.215 418.058 464.873 409.635 471.437L402.877 476.669C401.943 477.392 402.871 479.008 403.817 478.275C420.009 465.734 435.953 452.825 453.5 442.177C477.136 427.844 502.815 417.731 528.428 407.537C542.846 401.777 557.071 395.377 571.708 390.182C585.909 385.156 600.816 381.31 615.964 381.209C630.558 381.115 644.809 384.914 656.963 393.107C668.76 401.058 678.055 412.36 684.831 424.785C692.829 439.447 697.093 455.806 699.437 472.264C700.716 481.243 701.419 490.292 701.869 499.349C702.27 507.179 702.683 515.058 702.523 522.903C702.271 534.65 700.635 548.729 691.288 557.013C679.67 567.317 663.749 561.626 651.559 555.667C645.006 552.464 638.62 548.954 631.939 546.003C625.351 543.095 618.612 540.542 611.752 538.355C569.57 525.027 524.261 525.321 482.256 539.196C475.306 541.527 468.491 544.241 461.841 547.325C453.91 551.007 446.209 555.153 438.218 558.693C424.488 564.781 409.363 568.851 394.438 564.667C388.08 562.981 382.352 559.474 377.959 554.578C373.157 549.036 370.788 541.799 370.514 534.529C369.876 518.916 377.864 505.177 387.976 493.93C393.005 488.333 398.538 483.217 404.047 478.123C404.952 477.317 403.624 476.004 402.742 476.81Z" fill="#EA5D4A"/>
<path d="M195.387 565.234C181.767 544.633 168.588 522.786 166.09 498.184C163.593 473.582 171.872 447.033 191.344 431.858C210.541 416.862 236.888 414.988 261.13 417.359C285.371 419.731 309.472 425.71 333.771 424.022C383.761 420.561 429.06 381.02 439.248 331.962C442.293 317.304 442.498 302.089 446.629 287.697C450.759 273.305 460.038 259.109 474.377 254.798C487.664 250.798 501.844 256.105 514.396 262.042C540.56 274.423 565.701 290.293 584.065 312.672C602.429 335.05 613.359 364.683 608.592 393.24C603.64 422.989 581.988 448.404 555.134 462.139C528.279 475.873 496.898 478.821 466.98 475.065C438.774 471.528 406.257 463.475 384.875 482.189C371.592 493.832 367.378 512.357 360.562 528.654C353.746 544.951 340.244 561.71 322.612 560.535C301.514 559.097 283.759 532.415 264.512 541.171C243.736 550.622 249.613 591.533 226.99 594.321C213.164 596.023 201.312 574.19 195.387 565.234Z" fill="#FDDC4E"/>
<path d="M85.1362 495.463C87.9452 508.286 91.9161 521.071 98.5877 532.457C104.651 542.803 112.984 551.911 124.142 556.793C133.947 561.059 145.523 562.356 155.662 558.445C165.376 554.716 171.921 546.661 176.173 537.423C180.531 527.992 182.886 517.757 187.048 508.212C189.012 503.453 191.674 499.013 194.946 495.039C199.287 490.138 204.605 486.198 210.557 483.473C223.476 477.332 237.931 476.214 251.997 475.185C266.063 474.156 280.457 473.003 293.671 467.549C304.947 463.018 314.402 454.878 320.56 444.402C326.243 434.534 329.124 423.302 328.892 411.917C328.387 386.279 312.243 363.232 291.206 349.618C280.531 342.829 268.792 337.88 256.479 334.977C243.402 331.695 229.89 330.485 216.438 331.392C202.877 332.428 189.444 336.189 178.071 343.812C167.298 351.034 158.788 360.988 151.32 371.499C147.527 376.826 144.042 382.349 140.412 387.783C136.874 393.136 132.49 397.878 127.432 401.826C119.337 408.099 109.694 412.126 101.939 418.94C92.4833 427.268 86.0013 439.131 83.0632 451.318C80.5252 461.767 80.8365 472.612 82.63 483.182C83.3268 487.31 84.2467 491.401 85.1647 495.485C85.4632 496.856 87.5679 496.294 87.2694 494.923C85.2964 485.904 83.3992 476.888 83.3861 467.609C83.348 455.528 86.6343 443.67 92.8853 433.331C95.9647 428.163 99.8776 423.54 104.466 419.648C108.327 416.407 112.675 413.802 116.981 411.239C121.357 408.733 125.555 405.929 129.546 402.847C134.224 399.074 138.318 394.63 141.695 389.658C145.332 384.365 148.688 378.891 152.396 373.639C156.048 368.387 160.038 363.377 164.339 358.641C173.305 348.873 184.089 341.242 196.811 337.235C209.852 333.128 223.773 332.514 237.301 333.891C249.773 335.091 262.004 338.101 273.608 342.826C296.78 352.42 316.86 370.838 324.114 395.38C330.521 417.089 324.766 442.505 306.955 457.259C296.548 465.879 283.006 469.548 269.862 471.353C255.399 473.344 240.667 473.063 226.335 476.049C214.352 478.544 202.263 483.599 193.941 492.879C187.129 500.494 183.631 510.275 180.408 519.794C177.259 529.106 174.305 539.012 167.986 546.758C161.27 554.986 151.38 558.988 140.837 558.519C129.825 557.969 119.394 553.412 111.507 545.707C102.335 536.695 96.3053 525.009 92.177 512.959C90.182 507.028 88.5262 500.988 87.2174 494.869C86.8792 493.546 84.7764 494.116 85.1362 495.463Z" fill="#58BBAE"/>
<path d="M353.165 403.517C365.605 401.116 377.48 396.391 388.168 389.59C398.925 382.801 408.397 374.164 416.146 364.078C423.886 354.053 429.683 342.67 433.24 330.515C437.537 315.65 438.128 300.107 440.876 284.957C443.245 271.877 447.418 258.406 456.337 248.237C457.398 247.032 458.522 245.874 459.709 244.766C460.733 243.816 459.189 242.282 458.158 243.233C448.333 252.404 443.045 265.249 440.06 278.132C436.628 292.916 436.067 308.203 432.871 323.029C430.127 335.628 424.963 347.575 417.667 358.207C410.521 368.617 401.565 377.659 391.223 384.903C380.923 392.172 369.344 397.434 357.095 400.415C355.605 400.775 354.097 401.096 352.594 401.377C351.213 401.64 351.783 403.743 353.156 403.481L353.165 403.517Z" fill="#FDDC4E"/>
</svg>
